<?xml version="1.0" encoding="UTF-8" standalone="no"?>
<svg
   xmlns:dc="http://purl.org/dc/elements/1.1/"
   xmlns:cc="http://creativecommons.org/ns#"
   xmlns:rdf="http://www.w3.org/1999/02/22-rdf-syntax-ns#"
   xmlns:svg="http://www.w3.org/2000/svg"
   xmlns="http://www.w3.org/2000/svg"
   xmlns:sodipodi="http://sodipodi.sourceforge.net/DTD/sodipodi-0.dtd"
   xmlns:inkscape="http://www.inkscape.org/namespaces/inkscape"
   style="fill-opacity:1; color-rendering:auto; color-interpolation:auto; stroke:black; text-rendering:auto; stroke-linecap:square; stroke-miterlimit:10; stroke-opacity:1; shape-rendering:auto; fill:black; stroke-dasharray:none; font-weight:normal; stroke-width:1; font-family:'Dialog'; font-style:normal; stroke-linejoin:miter; font-size:12px; stroke-dashoffset:0; image-rendering:auto;"
   width="1920"
   height="813"
   version="1.1"
   id="svg187"
   sodipodi:docname="comb.svg"
   inkscape:version="0.92.3 (2405546, 2018-03-11)">
  <metadata
     id="metadata191">
    <rdf:RDF>
      <cc:Work
         rdf:about="">
        <dc:format>image/svg+xml</dc:format>
        <dc:type
           rdf:resource="http://purl.org/dc/dcmitype/StillImage" />
        <dc:title></dc:title>
      </cc:Work>
    </rdf:RDF>
  </metadata>
  <sodipodi:namedview
     pagecolor="#ffffff"
     bordercolor="#666666"
     borderopacity="1"
     objecttolerance="10"
     gridtolerance="10"
     guidetolerance="10"
     inkscape:pageopacity="0"
     inkscape:pageshadow="2"
     inkscape:window-width="1920"
     inkscape:window-height="986"
     id="namedview189"
     showgrid="false"
     inkscape:zoom="0.20416667"
     inkscape:cx="960"
     inkscape:cy="406.5"
     inkscape:window-x="-11"
     inkscape:window-y="-11"
     inkscape:window-maximized="1"
     inkscape:current-layer="svg187" />
  <!--Generated by the Batik Graphics2D SVG Generator-->
  <defs
     id="genericDefs" />
  <g
     id="g185">
    <defs
       id="defs1">
      <clipPath
         clipPathUnits="userSpaceOnUse"
         id="clipPath1">
        <path
           d="M0 0 L1920 0 L1920 813 L0 813 L0 0 Z"
           id="path3" />
      </clipPath>
    </defs>
    <g
       style="fill:white; stroke:white;"
       id="g9">
      <rect
         x="0"
         y="0"
         width="1920"
         style="clip-path:url(#clipPath1); stroke:none;"
         height="813"
         clip-path="url(#clipPath1)"
         id="rect7" />
    </g>
    <g
       style="fill:white; text-rendering:optimizeSpeed; color-rendering:optimizeSpeed; image-rendering:optimizeSpeed; shape-rendering:crispEdges; color-interpolation:sRGB; stroke:white;"
       id="g15">
      <rect
         x="0"
         width="1920"
         height="813"
         y="0"
         style="stroke:none;"
         id="rect11" />
      <path
         style="stroke:none;"
         d="M250 707 L1738 707 L1738 61 L250 61 Z"
         id="path13" />
    </g>
    <g
       style="fill:rgb(38,38,38); text-rendering:geometricPrecision; color-rendering:optimizeQuality; image-rendering:optimizeQuality; stroke-linejoin:round; color-interpolation:linearRGB; stroke:rgb(38,38,38);"
       id="g25">
      <line
         y2="707"
         style="fill:none;"
         x1="250"
         x2="1738"
         y1="707"
         id="line17" />
      <line
         y2="61"
         style="fill:none;"
         x1="250"
         x2="1738"
         y1="61"
         id="line19" />
      <line
         y2="692.12"
         style="fill:none;"
         x1="994"
         x2="994"
         y1="707"
         id="line21" />
      <line
         y2="75.88"
         style="fill:none;"
         x1="994"
         x2="994"
         y1="61"
         id="line23" />
    </g>
    <g
       transform="translate(994,718.2)"
       style="font-size:36px; fill:rgb(38,38,38); text-rendering:geometricPrecision; color-rendering:optimizeQuality; image-rendering:optimizeQuality; font-family:'SansSerif'; color-interpolation:linearRGB; stroke:rgb(38,38,38);"
       id="g29">
      <path
         style="stroke:none;"
         d="M-9 24.2969 Q-9 19.7188 -8.0625 16.9297 Q-7.125 14.1406 -5.2734 12.6328 Q-3.4219 11.125 -0.6094 11.125 Q1.4688 11.125 3.0312 11.9609 Q4.5938 12.7969 5.6172 14.3672 Q6.6406 15.9375 7.2188 18.1953 Q7.7969 20.4531 7.7969 24.2969 Q7.7969 28.8281 6.8672 31.6094 Q5.9375 34.3906 4.0859 35.9141 Q2.2344 37.4375 -0.6094 37.4375 Q-4.3281 37.4375 -6.4531 34.7656 Q-9 31.5469 -9 24.2969 ZM-5.75 24.2969 Q-5.75 30.6406 -4.2656 32.7422 Q-2.7812 34.8438 -0.6094 34.8438 Q1.5781 34.8438 3.0625 32.7344 Q4.5469 30.625 4.5469 24.2969 Q4.5469 17.9219 3.0625 15.8359 Q1.5781 13.75 -0.6406 13.75 Q-2.8125 13.75 -4.125 15.5938 Q-5.75 17.9375 -5.75 24.2969 Z"
         id="path27" />
    </g>
    <g
       transform="translate(994.0007,765.2)"
       style="font-size:40px; fill:rgb(38,38,38); text-rendering:geometricPrecision; color-rendering:optimizeQuality; image-rendering:optimizeQuality; font-family:'mwb_cmmi10'; color-interpolation:linearRGB; stroke:rgb(38,38,38);"
       id="g33">
      <path
         style="stroke:none;"
         d="M-3.3919 33.717 Q-5.22 33.717 -6.3138 32.3889 Q-7.4075 31.0607 -7.8216 29.1857 Q-8.2356 27.3107 -8.2356 25.467 L-8.2356 25.4357 Q-8.2356 23.4357 -7.8606 21.2873 Q-7.4856 19.1389 -6.7591 16.9982 Q-6.0325 14.8576 -5.1888 13.1857 Q-4.6106 12.0139 -3.681 10.5685 Q-2.7513 9.1232 -1.6106 7.8654 Q-0.47 6.6076 0.8503 5.8342 Q2.1706 5.0607 3.5144 5.0607 L3.5612 5.0607 Q4.9987 5.0607 5.9675 5.8576 Q6.9362 6.6545 7.4753 7.9045 Q8.0144 9.1545 8.2253 10.5842 Q8.4362 12.0139 8.4362 13.2951 Q8.4362 16.3264 7.6159 19.4826 Q6.7956 22.6389 5.3581 25.592 Q4.8112 26.7014 3.8425 28.2014 Q2.8737 29.7014 1.7878 30.8967 Q0.7019 32.092 -0.6419 32.9045 Q-1.9856 33.717 -3.3606 33.717 L-3.3919 33.717 ZM-3.3138 32.6545 Q-1.9856 32.6545 -0.7669 31.2404 Q0.4519 29.8264 1.3659 27.8029 Q2.28 25.7795 2.9753 23.6623 Q3.6706 21.5451 3.9987 20.0607 L-4.1575 20.0607 Q-4.7825 22.5764 -5.1341 24.4045 Q-5.4856 26.2326 -5.4856 27.9826 Q-5.4856 32.6545 -3.3138 32.6545 ZM-3.845 18.6545 L4.3581 18.6545 Q4.78 16.8889 5.0378 15.7092 Q5.2956 14.5295 5.4675 13.2248 Q5.6394 11.9201 5.6394 10.7795 Q5.6394 6.092 3.5144 6.092 Q0.9831 6.092 -0.8685 10.1857 Q-2.72 14.2795 -3.845 18.6545 Z"
         id="path31" />
    </g>
    <g
       style="fill:rgb(38,38,38); text-rendering:geometricPrecision; color-rendering:optimizeQuality; image-rendering:optimizeQuality; stroke-linejoin:round; color-interpolation:linearRGB; stroke:rgb(38,38,38);"
       id="g47">
      <line
         y2="61"
         style="fill:none;"
         x1="250"
         x2="250"
         y1="707"
         id="line35" />
      <line
         y2="61"
         style="fill:none;"
         x1="1738"
         x2="1738"
         y1="707"
         id="line37" />
      <line
         y2="707"
         style="fill:none;"
         x1="250"
         x2="264.88"
         y1="707"
         id="line39" />
      <line
         y2="168.6667"
         style="fill:none;"
         x1="250"
         x2="264.88"
         y1="168.6667"
         id="line41" />
      <line
         y2="707"
         style="fill:none;"
         x1="1738"
         x2="1723.12"
         y1="707"
         id="line43" />
      <line
         y2="168.6667"
         style="fill:none;"
         x1="1738"
         x2="1723.12"
         y1="168.6667"
         id="line45" />
    </g>
    <g
       transform="translate(238.8,707)"
       style="font-size:36px; fill:rgb(38,38,38); text-rendering:geometricPrecision; color-rendering:optimizeQuality; image-rendering:optimizeQuality; font-family:'SansSerif'; color-interpolation:linearRGB; stroke:rgb(38,38,38);"
       id="g51">
      <path
         style="stroke:none;"
         d="M-19.5 1.7969 Q-19.5 -2.7812 -18.5625 -5.5703 Q-17.625 -8.3594 -15.7734 -9.8672 Q-13.9219 -11.375 -11.1094 -11.375 Q-9.0312 -11.375 -7.4688 -10.5391 Q-5.9062 -9.7031 -4.8828 -8.1328 Q-3.8594 -6.5625 -3.2812 -4.3047 Q-2.7031 -2.0469 -2.7031 1.7969 Q-2.7031 6.3281 -3.6328 9.1094 Q-4.5625 11.8906 -6.4141 13.4141 Q-8.2656 14.9375 -11.1094 14.9375 Q-14.8281 14.9375 -16.9531 12.2656 Q-19.5 9.0469 -19.5 1.7969 ZM-16.25 1.7969 Q-16.25 8.1406 -14.7656 10.2422 Q-13.2812 12.3438 -11.1094 12.3438 Q-8.9219 12.3438 -7.4375 10.2344 Q-5.9531 8.125 -5.9531 1.7969 Q-5.9531 -4.5781 -7.4375 -6.6641 Q-8.9219 -8.75 -11.1406 -8.75 Q-13.3125 -8.75 -14.625 -6.9062 Q-16.25 -4.5625 -16.25 1.7969 Z"
         id="path49" />
    </g>
    <g
       transform="translate(211.8,383.9997) rotate(-90)"
       style="font-size:48px; fill:rgb(38,38,38); text-rendering:geometricPrecision; color-rendering:optimizeQuality; image-rendering:optimizeQuality; font-family:'mwa_cmmi10'; color-interpolation:linearRGB; stroke:rgb(38,38,38);"
       id="g61">
      <path
         style="stroke:none;"
         d="M-41.0177 -17.2802 Q-41.4865 -17.2802 -41.4865 -17.9208 Q-41.299 -18.9677 -40.8771 -18.9677 Q-38.0334 -18.9677 -37.0334 -19.1552 Q-35.924 -19.4208 -35.6427 -20.5927 L-29.0646 -46.952 Q-28.9709 -47.4208 -28.9709 -47.5614 Q-28.9709 -47.8739 -29.1193 -47.9989 Q-29.2677 -48.1239 -29.5959 -48.202 Q-30.5646 -48.3895 -33.2365 -48.3895 Q-33.7209 -48.3895 -33.7209 -49.0145 Q-33.5646 -49.6239 -33.4709 -49.8505 Q-33.3771 -50.077 -32.9084 -50.077 L-19.5021 -50.077 Q-19.0334 -50.077 -19.0334 -49.4364 Q-19.049 -49.327 -19.1193 -49.0458 Q-19.1896 -48.7645 -19.3068 -48.577 Q-19.424 -48.3895 -19.6584 -48.3895 Q-22.4709 -48.3895 -23.549 -48.202 Q-24.6115 -47.9364 -24.8927 -46.7489 L-31.4552 -20.4052 Q-31.5646 -19.8114 -31.5646 -19.7646 Q-31.5646 -19.6552 -31.5334 -19.5458 Q-31.5021 -19.4364 -31.3927 -19.3583 Q-31.2834 -19.2802 -31.1818 -19.2411 Q-31.0802 -19.2021 -30.9396 -19.1552 Q-30.0177 -18.9677 -27.2834 -18.9677 Q-26.8146 -18.9677 -26.8146 -18.3427 Q-26.9709 -17.6552 -27.0646 -17.4677 Q-27.1584 -17.2802 -27.6271 -17.2802 L-41.0177 -17.2802 Z"
         id="path53" />
      <path
         style="stroke:none;"
         d="M-3.2761 -5.3739 Q-5.948 -7.4833 -7.8855 -10.2099 Q-9.823 -12.9364 -11.0496 -16.038 Q-12.2761 -19.1396 -12.8855 -22.5146 Q-13.4949 -25.8896 -13.4949 -29.2802 Q-13.4949 -32.7333 -12.8855 -36.1083 Q-12.2761 -39.4833 -11.0261 -42.6005 Q-9.7761 -45.7177 -7.8308 -48.4364 Q-5.8855 -51.1552 -3.2761 -53.1864 Q-3.2761 -53.2802 -3.0418 -53.2802 L-2.6043 -53.2802 Q-2.4636 -53.2802 -2.3465 -53.1552 Q-2.2293 -53.0302 -2.2293 -52.8583 Q-2.2293 -52.6552 -2.323 -52.5614 Q-4.6668 -50.2645 -6.2215 -47.6395 Q-7.7761 -45.0145 -8.7293 -42.0458 Q-9.6824 -39.077 -10.1043 -35.9052 Q-10.5261 -32.7333 -10.5261 -29.2802 Q-10.5261 -14.0146 -2.3699 -6.0927 Q-2.2293 -5.9521 -2.2293 -5.7021 Q-2.2293 -5.5771 -2.3543 -5.4286 Q-2.4793 -5.2802 -2.6043 -5.2802 L-3.0418 -5.2802 Q-3.2761 -5.2802 -3.2761 -5.3739 Z"
         id="path55" />
      <path
         style="stroke:none;"
         d="M8.2343 -16.7333 Q6.0625 -16.7333 4.75 -18.3349 Q3.4375 -19.9364 2.9296 -22.1864 Q2.4218 -24.4364 2.4218 -26.6396 L2.4218 -26.6864 Q2.4218 -29.0771 2.8828 -31.6552 Q3.3437 -34.2333 4.2109 -36.7958 Q5.0781 -39.3583 6.0781 -41.3739 Q6.7812 -42.7802 7.8984 -44.5145 Q9.0156 -46.2489 10.3828 -47.7645 Q11.75 -49.2802 13.3359 -50.202 Q14.9218 -51.1239 16.5312 -51.1239 L16.5781 -51.1239 Q18.3125 -51.1239 19.4765 -50.163 Q20.6406 -49.202 21.2812 -47.702 Q21.9218 -46.202 22.1796 -44.4911 Q22.4375 -42.7802 22.4375 -41.2333 Q22.4375 -37.6083 21.4531 -33.8192 Q20.4687 -30.0302 18.7343 -26.4989 Q18.0781 -25.1552 16.9218 -23.3505 Q15.7656 -21.5458 14.4609 -20.1161 Q13.1562 -18.6864 11.539 -17.7099 Q9.9218 -16.7333 8.2812 -16.7333 L8.2343 -16.7333 ZM8.3281 -18.0146 Q9.9218 -18.0146 11.3906 -19.7099 Q12.8593 -21.4052 13.9609 -23.8349 Q15.0625 -26.2646 15.8906 -28.8036 Q16.7187 -31.3427 17.125 -33.1239 L7.3281 -33.1239 Q6.5781 -30.1083 6.1562 -27.913 Q5.7343 -25.7177 5.7343 -23.6083 Q5.7343 -18.0146 8.3281 -18.0146 ZM7.7031 -34.8114 L17.5468 -34.8114 Q18.0625 -36.9208 18.3671 -38.3427 Q18.6718 -39.7645 18.8828 -41.3349 Q19.0937 -42.9052 19.0937 -44.2645 Q19.0937 -49.8895 16.5312 -49.8895 Q13.4843 -49.8895 11.2734 -44.9755 Q9.0625 -40.0614 7.7031 -34.8114 Z"
         id="path57" />
      <path
         style="stroke:none;"
         d="M27.4917 -5.2802 Q27.0698 -5.2802 27.0698 -5.7021 Q27.0698 -5.9052 27.1635 -5.9989 Q35.3667 -14.0146 35.3667 -29.2802 Q35.3667 -44.5458 27.2573 -52.4677 Q27.0698 -52.577 27.0698 -52.8583 Q27.0698 -53.0302 27.1948 -53.1552 Q27.3198 -53.2802 27.4917 -53.2802 L27.9292 -53.2802 Q28.0698 -53.2802 28.1635 -53.1864 Q31.6167 -50.4677 33.9135 -46.577 Q36.2104 -42.6864 37.2729 -38.2802 Q38.3354 -33.8739 38.3354 -29.2802 Q38.3354 -25.8896 37.7651 -22.5927 Q37.1948 -19.2958 35.937 -16.0927 Q34.6792 -12.8896 32.7573 -10.1864 Q30.8354 -7.4833 28.1635 -5.3739 Q28.0698 -5.2802 27.9292 -5.2802 L27.4917 -5.2802 Z"
         id="path59" />
    </g>
    <g
       style="stroke-linecap:butt; fill:red; text-rendering:geometricPrecision; color-rendering:optimizeQuality; image-rendering:optimizeQuality; stroke-linejoin:round; color-interpolation:linearRGB; stroke:red; stroke-width:4;"
       id="g67">
      <path
         d="M344.7375 702.5273 L348.4576 702.5101 L352.1775 702.5283 L355.8975 702.582 L359.6175 702.6708 L363.3375 702.7937 L367.0575 702.9491 L370.7775 703.1348 L374.4975 703.3483 L378.2175 703.5862 L381.9375 703.845 L385.6575 704.1205 L389.3775 704.4084 L393.0975 704.7038 L396.8175 705.0017 L400.5375 705.2969 L404.2575 705.5842 L407.9775 705.8583 L411.6975 706.1138 L415.4175 706.3458 L419.1375 706.5492 L422.8575 706.7196 L426.5775 706.8528 L430.2975 706.9451 L434.0175 706.9932 L437.7375 706.9948 L441.4575 706.9476 L445.1775 706.8506 L448.8975 706.7034 L452.6175 706.506 L456.3376 706.2596 L460.0575 705.966 L463.7775 705.6278 L467.4975 705.2484 L471.2175 704.8318 L474.9375 704.383 L478.6575 703.9072 L482.3775 703.4104 L486.0975 702.8991 L489.8175 702.3801 L493.5375 701.8607 L497.2575 701.3481 L500.9775 700.8498 L504.6975 700.3733 L508.4175 699.9259 L512.1376 699.5146 L515.8575 699.1461 L519.5775 698.8267 L523.2975 698.5618 L527.0175 698.3565 L530.7375 698.2148 L534.4575 698.1401 L538.1775 698.1344 L541.8975 698.199 L545.6176 698.3342 L549.3375 698.5388 L553.0575 698.8108 L556.7775 699.1468 L560.4976 699.5424 L564.2175 699.992 L567.9375 700.489 L571.6575 701.0258 L575.3775 701.5938 L579.0975 702.1835 L582.8175 702.7849 L586.5375 703.3872 L590.2575 703.9793 L593.9775 704.5497 L597.6975 705.0868 L601.4175 705.5789 L605.1375 706.0148 L608.8575 706.3834 L612.5775 706.6743 L616.2975 706.8777 L620.0175 706.9849 L623.7375 706.9882 L627.4575 706.881 L631.1775 706.6583 L634.8975 706.3165 L638.6175 705.8535 L642.3375 705.2692 L646.0575 704.565 L649.7775 703.7442 L653.4975 702.8121 L657.2175 701.7757 L660.9375 700.6439 L664.6575 699.4273 L668.3775 698.1383 L672.0975 696.7908 L675.8175 695.4001 L679.5375 693.983 L683.2575 692.557 L686.9775 691.1408 L690.6975 689.7536 L694.4175 688.4149 L698.1375 687.1445 L701.8575 685.9617 L705.5775 684.8857 L709.2975 683.9347 L713.0175 683.1256 L716.7375 682.4743 L720.4575 681.9947 L724.1776 681.6987 L727.8975 681.5958 L731.6175 681.6933 L735.3375 681.9951 L739.0575 682.5025 L742.7775 683.2133 L746.4975 684.1216 L750.2175 685.2186 L753.9375 686.491 L757.6575 687.9223 L761.3775 689.4919 L765.0975 691.1758 L768.8175 692.9457 L772.5375 694.7703 L776.2575 696.6145 L779.9775 698.4401 L783.6975 700.2059 L787.4175 701.8679 L791.1375 703.3799 L794.8575 704.6936 L798.5775 705.759 L802.2975 706.5251 L806.0175 706.9401 L809.7375 706.9521 L813.4575 706.5095 L817.1776 705.5614 L820.8975 704.0585 L824.6175 701.9532 L828.3375 699.2008 L832.0575 695.7592 L835.7775 691.5901 L839.4975 686.6592 L843.2175 680.9368 L846.9375 674.3982 L850.6575 667.0242 L854.3775 658.8012 L858.0975 649.7222 L861.8175 639.7864 L865.5375 628.9996 L869.2575 617.3749 L872.9775 604.9321 L876.6975 591.6981 L880.4175 577.707 L884.1375 562.9999 L887.8575 547.6248 L891.5775 531.6361 L895.2975 515.0951 L899.0175 498.0688 L902.7375 480.6301 L906.4575 462.857 L910.1775 444.8324 L913.8975 426.6434 L917.6175 408.3806 L921.3375 390.1374 L925.0575 372.0098 L928.7775 354.095 L932.4975 336.4914 L936.2175 319.297 L939.9375 302.6095 L943.6575 286.525 L947.3775 271.1372 L951.0975 256.537 L954.8175 242.8115 L958.5375 230.0434 L962.2575 218.3104 L965.9775 207.6841 L969.6975 198.2302 L973.4175 190.0072 L977.1375 183.0663 L980.8575 177.4509 L984.5775 173.1964 L988.2975 170.3293 L992.0175 168.8678 L995.7375 168.8212 L999.4575 170.1897 L1003.1775 172.9646 L1006.8975 177.1286 L1010.6175 182.6553 L1014.3375 189.5102 L1018.0575 197.6503 L1021.7775 207.0249 L1025.4976 217.5759 L1029.2175 229.2382 L1032.9375 241.9404 L1036.6575 255.6053 L1040.3776 270.1505 L1044.0975 285.4892 L1047.8175 301.5308 L1051.5375 318.1815 L1055.2576 335.3455 L1058.9775 352.9252 L1062.6975 370.8224 L1066.4175 388.9391 L1070.1376 407.1776 L1073.8575 425.4421 L1077.5775 443.6388 L1081.2975 461.6769 L1085.0176 479.4691 L1088.7375 496.9323 L1092.4575 513.988 L1096.1775 530.5632 L1099.8975 546.5901 L1103.6176 562.0074 L1107.3375 576.7601 L1111.0575 590.7997 L1114.7775 604.0847 L1118.4976 616.5804 L1122.2175 628.2598 L1125.9375 639.1021 L1129.6575 649.0942 L1133.3776 658.2297 L1137.0975 666.5089 L1140.8175 673.9385 L1144.5375 680.5316 L1148.2576 686.3071 L1151.9775 691.2892 L1155.6975 695.5074 L1159.4175 698.9958 L1163.1376 701.7924 L1166.8575 703.9388 L1170.5775 705.48 L1174.2975 706.4631 L1178.0176 706.9376 L1181.7375 706.9539 L1185.4575 706.5638 L1189.1775 705.8192 L1192.8976 704.772 L1196.6176 703.4731 L1200.3375 701.9726 L1204.0575 700.319 L1207.7775 698.5587 L1211.4976 696.7357 L1215.2175 694.8915 L1218.9375 693.0645 L1222.6575 691.29 L1226.3776 689.5996 L1230.0975 688.0217 L1233.8175 686.5806 L1237.5375 685.2971 L1241.2576 684.1882 L1244.9775 683.267 L1248.6975 682.5431 L1252.4175 682.0222 L1256.1376 681.7068 L1259.8575 681.596 L1263.5775 681.6859 L1267.2975 681.9694 L1271.0176 682.4373 L1274.7375 683.0778 L1278.4575 683.8768 L1282.1775 684.8191 L1285.8976 685.8874 L1289.6176 687.0637 L1293.3375 688.3289 L1297.0575 689.6637 L1300.7775 691.0483 L1304.4976 692.4633 L1308.2175 693.8892 L1311.9375 695.3074 L1315.6575 696.7004 L1319.3776 698.0512 L1323.0975 699.3445 L1326.8175 700.5662 L1330.5375 701.704 L1334.2576 702.7469 L1337.9775 703.6862 L1341.6975 704.5145 L1345.4175 705.2265 L1349.1376 705.8188 L1352.8575 706.2897 L1356.5775 706.6395 L1360.2975 706.8699 L1364.0176 706.9846 L1367.7375 706.9883 L1371.4575 706.8878 L1375.1775 706.6904 L1378.8976 706.405 L1382.6176 706.0413 L1386.3375 705.6095 L1390.0575 705.1207 L1393.7776 704.5862 L1397.4976 704.0176 L1401.2175 703.4266 L1404.9375 702.8246 L1408.6575 702.2228 L1412.3776 701.632 L1416.0975 701.0623 L1419.8175 700.5233 L1423.5375 700.0234 L1427.2576 699.5704 L1430.9775 699.1711 L1434.6975 698.831 L1438.4175 698.5547 L1442.1376 698.3456 L1445.8575 698.2058 L1449.5775 698.1365 L1453.2975 698.1376 L1457.0176 698.2078 L1460.7375 698.3452 L1464.4575 698.5464 L1468.1775 698.8075 L1471.8975 699.1235 L1475.6176 699.489 L1479.3375 699.8976 L1483.0575 700.3429 L1486.7775 700.8177 L1490.4976 701.3148 L1494.2175 701.8266 L1497.9375 702.3459 L1501.6575 702.8651 L1505.3776 703.3771 L1509.0975 703.8751 L1512.8175 704.3524 L1516.5375 704.8032 L1520.2576 705.222 L1523.9775 705.6041 L1527.6975 705.9451 L1531.4175 706.2417 L1535.1375 706.4913 L1538.8575 706.6919 L1542.5775 706.8425 L1546.2975 706.9428 L1550.0176 706.9932 L1553.7375 706.9948 L1557.4575 706.9496 L1561.1775 706.8602 L1564.8975 706.7296 L1568.6176 706.5615 L1572.3375 706.36 L1576.0575 706.1299 L1579.7776 705.8757 L1583.4976 705.6027 L1587.2175 705.3162 L1590.9375 705.0212 L1594.6575 704.7234 L1598.3776 704.4277 L1602.0975 704.1392 L1605.8175 703.8627 L1609.5375 703.6027 L1613.2574 703.3632 L1616.9775 703.1481 L1620.6975 702.9604 L1624.4175 702.803 L1628.1376 702.6779 L1631.8575 702.5868 L1635.5775 702.5308 L1639.2975 702.5103 L1643.0175 702.5251"
         style="fill:none; fill-rule:evenodd;"
         id="path63" />
      <path
         d="M344.7375 702.5887 L348.4576 703.0934 L352.1775 704.0381 L355.8975 705.1689 L359.6175 706.1874 L363.3375 706.8392 L367.0575 706.988 L370.7775 706.6495 L374.4975 705.9788 L378.2175 705.2141 L381.9375 704.5994 L385.6575 704.3102 L389.3775 704.4086 L393.0975 704.8368 L396.8175 705.4516 L400.5375 706.0809 L404.2575 706.5829 L407.9775 706.8854 L411.6975 706.9955 L415.4175 706.979 L419.1375 706.9211 L422.8575 706.8884 L426.5775 706.9048 L430.2975 706.9528 L434.0175 706.9933 L437.7375 706.9948 L441.4575 706.9544 L445.1775 706.9011 L448.8975 706.8771 L452.6175 706.9073 L456.3376 706.9717 L460.0575 706.9969 L463.7775 706.8755 L467.4975 706.5101 L471.2175 705.8658 L474.9375 705.0087 L478.6575 704.111 L482.3775 703.4106 L486.0975 703.1366 L489.8175 703.4202 L493.5375 704.2266 L497.2575 705.3348 L500.9775 706.3824 L504.6975 706.9666 L508.4175 706.7727 L512.1376 705.6904 L515.8575 703.8726 L519.5775 701.715 L523.2975 699.7535 L527.0175 698.5106 L530.7375 698.3354 L534.4575 699.291 L538.1775 701.1278 L541.8975 703.3525 L545.6176 705.3734 L549.3375 706.6766 L553.0575 706.9756 L556.7775 706.2878 L560.4976 704.9144 L564.2175 703.3339 L567.9375 702.0458 L571.6575 701.4194 L575.3775 701.5941 L579.0975 702.4625 L582.8175 703.7339 L586.5375 705.0504 L590.2575 706.11 L593.9775 706.754 L597.6975 706.9904 L601.4175 706.9543 L605.1375 706.8276 L608.8575 706.7545 L612.5775 706.7894 L616.2975 706.895 L620.0175 706.9852 L623.7375 706.9883 L627.4575 706.8965 L631.1775 706.7737 L634.8975 706.7167 L638.6175 706.7848 L642.3375 706.9338 L646.0575 706.9927 L649.7775 706.7048 L653.4975 705.8289 L657.2175 704.267 L660.9375 702.1637 L664.6575 699.9263 L668.3775 698.1389 L672.0975 697.3821 L675.8175 698.0117 L679.5375 699.9754 L683.2575 702.7447 L686.9775 705.4076 L690.6975 706.913 L694.4175 706.4029 L698.1375 703.5262 L701.8575 698.6227 L705.5775 692.7005 L709.2975 687.1922 L713.0175 683.5514 L716.7375 682.8107 L720.4575 685.2429 L724.1776 690.2415 L727.8975 696.4713 L731.6175 702.2498 L735.3375 706.0443 L739.0575 706.9272 L742.7775 704.843 L746.4975 700.602 L750.2175 695.6054 L753.9375 691.3949 L757.6575 689.1794 L761.3775 689.4932 L765.0975 692.0923 L768.8175 696.1099 L772.5375 700.4002 L776.2575 703.9401 L779.9775 706.1405 L783.6975 706.9657 L787.4175 706.8351 L791.1375 706.3666 L794.8575 706.0816 L798.5775 706.1976 L802.2975 706.5922 L806.0175 706.9412 L809.7375 706.9528 L813.4575 706.5732 L817.1776 706.0471 L820.8975 705.7809 L824.6175 706.0527 L828.3375 706.7019 L832.0575 706.9666 L835.7775 705.6026 L839.4975 701.3116 L843.2175 693.3655 L846.9375 682.1936 L850.6575 669.6583 L854.3775 658.8045 L858.0975 653.0397 L861.8175 654.9186 L865.5375 664.9072 L869.2575 680.5941 L872.9775 696.7513 L876.6975 706.418 L880.4175 702.8459 L884.1375 681.8063 L887.8575 643.5377 L891.5775 593.6066 L895.2975 542.1978 L899.0175 501.7946 L902.7375 483.7351 L906.4575 494.5715 L910.1775 533.3515 L913.8975 590.8062 L917.6175 650.947 L921.3375 694.889 L925.0575 706.0039 L928.7775 674.9974 L932.4975 603.3864 L936.2175 504.1799 L939.9375 399.3033 L943.6575 314.2314 L947.3775 271.167 L951.0975 282.6279 L954.8175 347.3174 L958.5375 449.6107 L962.2575 563.019 L965.9775 656.8634 L969.6975 704.4319 L973.4175 690.3893 L977.1375 615.3347 L980.8575 496.1367 L984.5775 361.8331 L988.2975 246.1233 L992.0175 178.4641 L995.7375 176.2034 L999.4575 239.922 L1003.1775 353.2779 L1006.8975 487.3947 L1010.6175 608.5767 L1014.3375 687.2208 L1018.0575 705.4855 L1021.7775 661.6606 L1025.4976 570.1313 L1029.2175 457.0672 L1032.9375 353.1407 L1036.6575 285.3491 L1040.3776 270.1805 L1044.0975 309.9033 L1047.8175 392.8168 L1051.5375 497.1744 L1055.2576 597.5007 L1058.9775 671.4471 L1062.6975 705.3031 L1066.4175 696.7809 L1070.1376 654.5443 L1073.8575 594.8853 L1077.5775 536.706 L1081.2975 496.3239 L1085.0176 483.5266 L1088.7375 499.8138 L1092.4575 539.0605 L1096.1775 590.1358 L1099.8975 640.5181 L1103.6176 679.7838 L1107.3375 702.022 L1111.0575 706.6545 L1114.7775 697.6673 L1118.4976 681.714 L1122.2175 665.8084 L1125.9375 655.3372 L1129.6575 652.9099 L1133.3776 658.2331 L1137.0975 668.8541 L1140.8175 681.3818 L1144.5375 692.7164 L1148.2576 700.9033 L1151.9775 705.4225 L1155.6975 706.942 L1159.4175 706.7429 L1163.1376 706.0889 L1166.8575 705.7811 L1170.5775 706.0172 L1174.2975 706.5389 L1178.0176 706.9387 L1181.7375 706.9545 L1185.4575 706.6205 L1189.1775 706.2179 L1192.8976 706.0766 L1196.6176 706.338 L1200.3375 706.8079 L1204.0575 706.9802 L1207.7775 706.2345 L1211.4976 704.1296 L1215.2175 700.6656 L1218.9375 696.3967 L1222.6575 692.3251 L1226.3776 689.6008 L1230.0975 689.1209 L1233.8175 691.1777 L1237.5375 695.2881 L1241.2576 700.2791 L1244.9775 704.6169 L1248.6975 706.8765 L1252.4175 706.1975 L1256.1376 702.5748 L1259.8575 696.8843 L1263.5775 690.6314 L1267.2975 685.5045 L1271.0176 682.8753 L1274.7375 683.4059 L1278.4575 686.8806 L1282.1775 692.3083 L1285.8976 698.2499 L1289.6176 703.2578 L1293.3375 706.2864 L1297.0575 706.9484 L1300.7775 705.5535 L1304.4976 702.9348 L1308.2175 700.1413 L1311.9375 698.1033 L1315.6575 697.379 L1319.3776 698.0518 L1323.0975 699.7879 L1326.8175 702.0147 L1330.5375 704.142 L1334.2576 705.7469 L1337.9775 706.6672 L1341.6975 706.9874 L1345.4175 706.943 L1349.1376 706.7933 L1352.8575 706.7172 L1356.5775 706.7669 L1360.2975 706.8883 L1364.0176 706.9848 L1367.7375 706.9885 L1371.4575 706.9023 L1375.1775 706.7949 L1378.8976 706.7534 L1382.6176 706.82 L1386.3375 706.9468 L1390.0575 706.9944 L1393.7776 706.7811 L1397.4976 706.166 L1401.2175 705.1307 L1404.9375 703.823 L1408.6575 702.5377 L1412.3776 701.6324 L1416.0975 701.4062 L1419.8175 701.9814 L1423.5375 703.235 L1427.2576 704.811 L1430.9775 706.2139 L1434.6975 706.9587 L1438.4175 706.7286 L1442.1376 705.4858 L1445.8575 703.4982 L1449.5775 701.2687 L1453.2975 699.3892 L1457.0176 698.3646 L1460.7375 698.4639 L1464.4575 699.6445 L1468.1775 701.5736 L1471.8975 703.7356 L1475.6176 705.5901 L1479.3375 706.7285 L1483.0575 706.9802 L1486.7775 706.4394 L1490.4976 705.4101 L1494.2175 704.2936 L1497.9375 703.4587 L1501.6575 703.1375 L1505.3776 703.3773 L1509.0975 704.056 L1512.8175 704.9485 L1516.5375 705.8145 L1520.2576 706.4762 L1523.9775 706.8598 L1527.6975 706.9947 L1531.4175 706.9756 L1535.1375 706.911 L1538.8575 706.8773 L1542.5775 706.8982 L1546.2975 706.9509 L1550.0176 706.9933 L1553.7375 706.9949 L1557.4575 706.9562 L1561.1775 706.9074 L1564.8975 706.8879 L1568.6176 706.9177 L1572.3375 706.9755 L1576.0575 706.9974 L1579.7776 706.8981 L1583.4976 706.6093 L1587.2175 706.1191 L1590.9375 705.4944 L1594.6575 704.8734 L1598.3776 704.4278 L1602.0975 704.3049 L1605.8175 704.569 L1609.5375 705.1666 L1613.2574 705.9285 L1616.9775 706.6132 L1620.6975 706.9796 L1624.4175 706.8652 L1628.1376 706.2438 L1631.8575 705.2427 L1635.5775 704.1101 L1639.2975 703.1443 L1643.0175 702.605"
         style="fill:none; stroke-width:2; fill-rule:evenodd; stroke:blue;"
         id="path65" />
    </g>
    <g
       transform="translate(198,104.3101)"
       style="font-size:48px; text-rendering:geometricPrecision; color-rendering:optimizeQuality; image-rendering:optimizeQuality; font-family:'mwa_cmmi10'; color-interpolation:linearRGB;"
       id="g71">
      <path
         style="stroke:none;"
         d="M2.0156 40.3198 Q1.5469 40.3198 1.5469 39.6792 Q1.7344 38.6323 2.1562 38.6323 Q5 38.6323 6 38.4448 Q7.1094 38.1792 7.3906 37.0073 L13.9688 10.6479 Q14.0625 10.1792 14.0625 10.0386 Q14.0625 9.7261 13.9141 9.6011 Q13.7656 9.4761 13.4375 9.3979 Q12.4688 9.2104 9.7969 9.2104 Q9.3125 9.2104 9.3125 8.5854 Q9.4688 7.9761 9.5625 7.7495 Q9.6562 7.5229 10.125 7.5229 L23.5312 7.5229 Q24 7.5229 24 8.1636 Q23.9844 8.2729 23.9141 8.5542 Q23.8438 8.8354 23.7266 9.0229 Q23.6094 9.2104 23.375 9.2104 Q20.5625 9.2104 19.4844 9.3979 Q18.4219 9.6636 18.1406 10.8511 L11.5781 37.1948 Q11.4688 37.7886 11.4688 37.8354 Q11.4688 37.9448 11.5 38.0542 Q11.5312 38.1636 11.6406 38.2417 Q11.75 38.3198 11.8516 38.3589 Q11.9531 38.3979 12.0938 38.4448 Q13.0156 38.6323 15.75 38.6323 Q16.2188 38.6323 16.2188 39.2573 Q16.0625 39.9448 15.9688 40.1323 Q15.875 40.3198 15.4062 40.3198 L2.0156 40.3198 Z"
         id="path69" />
    </g>
    <g
       transform="translate(198,104.3101)"
       style="font-size:34px; text-rendering:geometricPrecision; color-rendering:optimizeQuality; image-rendering:optimizeQuality; font-family:'mwa_cmr10'; color-interpolation:linearRGB;"
       id="g75">
      <path
         style="stroke:none;"
         d="M29.6 48.2698 Q25.4282 48.2698 23.9282 44.8401 Q22.4282 41.4104 22.4282 36.676 Q22.4282 33.7229 22.9672 31.1135 Q23.5063 28.5041 25.1079 26.6916 Q26.7094 24.8791 29.6 24.8791 Q31.8344 24.8791 33.2641 25.9729 Q34.6938 27.0666 35.4438 28.801 Q36.1938 30.5354 36.4672 32.5198 Q36.7407 34.5041 36.7407 36.676 Q36.7407 39.5979 36.2016 42.1448 Q35.6626 44.6916 34.0844 46.4807 Q32.5063 48.2698 29.6 48.2698 ZM29.6 47.3791 Q31.4907 47.3791 32.4204 45.4416 Q33.3501 43.5041 33.5688 41.1448 Q33.7876 38.7854 33.7876 36.1291 Q33.7876 33.5666 33.5688 31.4104 Q33.3501 29.2541 32.4282 27.5041 Q31.5063 25.7541 29.6 25.7541 Q27.6782 25.7541 26.7485 27.5119 Q25.8188 29.2698 25.6 31.4182 Q25.3813 33.5666 25.3813 36.1291 Q25.3813 38.0198 25.475 39.6994 Q25.5688 41.3791 25.9672 43.1604 Q26.3657 44.9416 27.2563 46.1604 Q28.1469 47.3791 29.6 47.3791 Z"
         id="path73" />
    </g>
    <g
       transform="translate(1183,186.0818)"
       style="font-size:48px; text-rendering:geometricPrecision; color-rendering:optimizeQuality; image-rendering:optimizeQuality; font-family:'mwa_cmr10'; color-interpolation:linearRGB;"
       id="g115">
      <path
         style="stroke:none;"
         d="M1.4844 40.3198 L1.4844 38.6323 Q3.125 38.6323 4.1797 38.3745 Q5.2344 38.1167 5.2344 37.1011 L5.2344 24.0073 Q5.2344 22.1479 4.5156 21.7261 Q3.7969 21.3042 1.6875 21.3042 L1.6875 19.6167 L8.6094 19.1011 L8.6094 37.1011 Q8.6094 38.1167 9.5234 38.3745 Q10.4375 38.6323 11.9531 38.6323 L11.9531 40.3198 L1.4844 40.3198 ZM3.5156 10.8511 Q3.5156 9.8042 4.3125 9.0073 Q5.1094 8.2104 6.1406 8.2104 Q6.8281 8.2104 7.4609 8.562 Q8.0938 8.9136 8.4453 9.5464 Q8.7969 10.1792 8.7969 10.8511 Q8.7969 11.8823 8 12.6792 Q7.2031 13.4761 6.1406 13.4761 Q5.1094 13.4761 4.3125 12.6792 Q3.5156 11.8823 3.5156 10.8511 Z"
         id="path77" />
      <path
         style="stroke:none;"
         d="M14.7709 40.3198 L14.7709 38.6323 Q16.4115 38.6323 17.4662 38.3745 Q18.5209 38.1167 18.5209 37.1011 L18.5209 24.0073 Q18.5209 22.7104 18.1302 22.1401 Q17.7396 21.5698 17.0131 21.437 Q16.2865 21.3042 14.7709 21.3042 L14.7709 19.6167 L21.724 19.1011 L21.724 23.7886 Q22.6927 21.7261 24.5756 20.4136 Q26.4584 19.1011 28.6927 19.1011 Q32.0209 19.1011 33.6927 20.6948 Q35.3646 22.2886 35.3646 25.5698 L35.3646 37.1011 Q35.3646 38.1167 36.4193 38.3745 Q37.474 38.6323 39.1146 38.6323 L39.1146 40.3198 L28.1302 40.3198 L28.1302 38.6323 Q29.7709 38.6323 30.8256 38.3745 Q31.8802 38.1167 31.8802 37.1011 L31.8802 25.7104 Q31.8802 23.3667 31.2006 21.8589 Q30.5209 20.3511 28.4115 20.3511 Q25.6146 20.3511 23.8256 22.5776 Q22.0365 24.8042 22.0365 27.6323 L22.0365 37.1011 Q22.0365 38.1167 23.0912 38.3745 Q24.1459 38.6323 25.7552 38.6323 L25.7552 40.3198 L14.7709 40.3198 Z"
         id="path79" />
      <path
         style="stroke:none;"
         d="M43.573 34.5542 L43.573 21.3042 L39.5886 21.3042 L39.5886 20.0698 Q42.7292 20.0698 44.2058 17.1401 Q45.6824 14.2104 45.6824 10.7886 L47.0574 10.7886 L47.0574 19.6167 L53.8386 19.6167 L53.8386 21.3042 L47.0574 21.3042 L47.0574 34.4604 Q47.0574 36.4448 47.7292 37.9448 Q48.4011 39.4448 50.1355 39.4448 Q51.7761 39.4448 52.5027 37.8667 Q53.2292 36.2886 53.2292 34.4604 L53.2292 31.6167 L54.6042 31.6167 L54.6042 34.5542 Q54.6042 36.0542 54.0574 37.5151 Q53.5105 38.9761 52.4324 39.9214 Q51.3542 40.8667 49.8074 40.8667 Q46.9167 40.8667 45.2449 39.1401 Q43.573 37.4136 43.573 34.5542 Z"
         id="path81" />
      <path
         style="stroke:none;"
         d="M69.2866 40.8667 Q66.3647 40.8667 63.9116 39.3276 Q61.4585 37.7886 60.0678 35.2183 Q58.6772 32.6479 58.6772 29.7886 Q58.6772 26.9761 59.9507 24.4448 Q61.2241 21.9136 63.5132 20.3589 Q65.8022 18.8042 68.6147 18.8042 Q70.8178 18.8042 72.4428 19.5386 Q74.0678 20.2729 75.1225 21.5854 Q76.1772 22.8979 76.7163 24.6792 Q77.2553 26.4604 77.2553 28.6011 Q77.2553 29.2261 76.771 29.2261 L62.8647 29.2261 L62.8647 29.7417 Q62.8647 33.7261 64.4741 36.5854 Q66.0835 39.4448 69.7085 39.4448 Q71.1928 39.4448 72.4428 38.7886 Q73.6928 38.1323 74.6225 36.9604 Q75.5522 35.7886 75.8803 34.4604 Q75.9272 34.2886 76.0522 34.1636 Q76.1772 34.0386 76.3491 34.0386 L76.771 34.0386 Q77.2553 34.0386 77.2553 34.6479 Q76.5835 37.3667 74.3335 39.1167 Q72.0835 40.8667 69.2866 40.8667 ZM62.9116 28.0386 L73.8647 28.0386 Q73.8647 26.2261 73.3569 24.3745 Q72.8491 22.5229 71.6772 21.2964 Q70.5053 20.0698 68.6147 20.0698 Q65.896 20.0698 64.4038 22.6089 Q62.9116 25.1479 62.9116 28.0386 Z"
         id="path83" />
      <path
         style="stroke:none;"
         d="M79.9168 40.3198 L79.9168 38.6323 Q81.5574 38.6323 82.6121 38.3745 Q83.6668 38.1167 83.6668 37.1011 L83.6668 24.0073 Q83.6668 22.7104 83.2762 22.1401 Q82.8856 21.5698 82.159 21.437 Q81.4324 21.3042 79.9168 21.3042 L79.9168 19.6167 L86.7762 19.1011 L86.7762 23.7886 Q87.5574 21.7104 88.9871 20.4058 Q90.4168 19.1011 92.4481 19.1011 Q93.8856 19.1011 95.0106 19.9448 Q96.1356 20.7886 96.1356 22.1792 Q96.1356 23.0386 95.5106 23.687 Q94.8856 24.3354 93.9793 24.3354 Q93.0887 24.3354 92.4559 23.7026 Q91.8231 23.0698 91.8231 22.1792 Q91.8231 20.8823 92.7293 20.3511 L92.4481 20.3511 Q90.5106 20.3511 89.2762 21.7573 Q88.0418 23.1636 87.5262 25.2495 Q87.0106 27.3354 87.0106 29.2261 L87.0106 37.1011 Q87.0106 38.6323 91.6824 38.6323 L91.6824 40.3198 L79.9168 40.3198 Z"
         id="path85" />
      <path
         style="stroke:none;"
         d="M99.0137 40.3198 L99.0137 38.6323 Q100.6387 38.6323 101.6934 38.3745 Q102.7481 38.1167 102.7481 37.1011 L102.7481 21.3042 L99.0606 21.3042 L99.0606 19.6167 L102.7481 19.6167 L102.7481 13.8823 Q102.7481 12.3354 103.3887 10.9839 Q104.0293 9.6323 105.1231 8.6245 Q106.2168 7.6167 107.6309 7.0464 Q109.045 6.4761 110.5762 6.4761 Q112.1856 6.4761 113.4903 7.437 Q114.795 8.3979 114.795 9.9917 Q114.795 10.8979 114.17 11.5229 Q113.545 12.1479 112.6387 12.1479 Q111.7168 12.1479 111.0762 11.5229 Q110.4356 10.8979 110.4356 9.9917 Q110.4356 8.4917 111.7168 7.9761 Q110.9512 7.7104 110.3418 7.7104 Q108.9356 7.7104 107.9356 8.7104 Q106.9356 9.7104 106.4434 11.1401 Q105.9512 12.5698 105.9512 13.9761 L105.9512 19.6167 L111.4825 19.6167 L111.4825 21.3042 L106.1231 21.3042 L106.1231 37.1011 Q106.1231 38.0854 107.5293 38.3589 Q108.9356 38.6323 110.7637 38.6323 L110.7637 40.3198 L99.0137 40.3198 Z"
         id="path87" />
      <path
         style="stroke:none;"
         d="M124.0867 40.8667 Q121.1648 40.8667 118.7117 39.3276 Q116.2586 37.7886 114.868 35.2183 Q113.4773 32.6479 113.4773 29.7886 Q113.4773 26.9761 114.7508 24.4448 Q116.0242 21.9136 118.3133 20.3589 Q120.6023 18.8042 123.4148 18.8042 Q125.618 18.8042 127.243 19.5386 Q128.868 20.2729 129.9226 21.5854 Q130.9773 22.8979 131.5164 24.6792 Q132.0555 26.4604 132.0555 28.6011 Q132.0555 29.2261 131.5711 29.2261 L117.6648 29.2261 L117.6648 29.7417 Q117.6648 33.7261 119.2742 36.5854 Q120.8836 39.4448 124.5086 39.4448 Q125.993 39.4448 127.243 38.7886 Q128.493 38.1323 129.4226 36.9604 Q130.3523 35.7886 130.6805 34.4604 Q130.7273 34.2886 130.8523 34.1636 Q130.9773 34.0386 131.1492 34.0386 L131.5711 34.0386 Q132.0555 34.0386 132.0555 34.6479 Q131.3836 37.3667 129.1336 39.1167 Q126.8836 40.8667 124.0867 40.8667 ZM117.7117 28.0386 L128.6648 28.0386 Q128.6648 26.2261 128.157 24.3745 Q127.6492 22.5229 126.4773 21.2964 Q125.3055 20.0698 123.4148 20.0698 Q120.6961 20.0698 119.2039 22.6089 Q117.7117 25.1479 117.7117 28.0386 Z"
         id="path89" />
      <path
         style="stroke:none;"
         d="M134.7169 40.3198 L134.7169 38.6323 Q136.3575 38.6323 137.4122 38.3745 Q138.4669 38.1167 138.4669 37.1011 L138.4669 24.0073 Q138.4669 22.7104 138.0763 22.1401 Q137.6857 21.5698 136.9591 21.437 Q136.2325 21.3042 134.7169 21.3042 L134.7169 19.6167 L141.5763 19.1011 L141.5763 23.7886 Q142.3575 21.7104 143.7872 20.4058 Q145.2169 19.1011 147.2482 19.1011 Q148.6857 19.1011 149.8107 19.9448 Q150.9357 20.7886 150.9357 22.1792 Q150.9357 23.0386 150.3107 23.687 Q149.6857 24.3354 148.7794 24.3354 Q147.8888 24.3354 147.256 23.7026 Q146.6232 23.0698 146.6232 22.1792 Q146.6232 20.8823 147.5294 20.3511 L147.2482 20.3511 Q145.3107 20.3511 144.0763 21.7573 Q142.8419 23.1636 142.3263 25.2495 Q141.8107 27.3354 141.8107 29.2261 L141.8107 37.1011 Q141.8107 38.6323 146.4825 38.6323 L146.4825 40.3198 L134.7169 40.3198 Z"
         id="path91" />
      <path
         style="stroke:none;"
         d="M164.22 40.8667 Q161.2982 40.8667 158.845 39.3276 Q156.3919 37.7886 155.0013 35.2183 Q153.6107 32.6479 153.6107 29.7886 Q153.6107 26.9761 154.8841 24.4448 Q156.1575 21.9136 158.4466 20.3589 Q160.7357 18.8042 163.5482 18.8042 Q165.7513 18.8042 167.3763 19.5386 Q169.0013 20.2729 170.056 21.5854 Q171.1107 22.8979 171.6497 24.6792 Q172.1888 26.4604 172.1888 28.6011 Q172.1888 29.2261 171.7044 29.2261 L157.7982 29.2261 L157.7982 29.7417 Q157.7982 33.7261 159.4075 36.5854 Q161.0169 39.4448 164.6419 39.4448 Q166.1263 39.4448 167.3763 38.7886 Q168.6263 38.1323 169.556 36.9604 Q170.4857 35.7886 170.8138 34.4604 Q170.8607 34.2886 170.9857 34.1636 Q171.1107 34.0386 171.2825 34.0386 L171.7044 34.0386 Q172.1888 34.0386 172.1888 34.6479 Q171.5169 37.3667 169.2669 39.1167 Q167.0169 40.8667 164.22 40.8667 ZM157.845 28.0386 L168.7982 28.0386 Q168.7982 26.2261 168.2904 24.3745 Q167.7825 22.5229 166.6107 21.2964 Q165.4388 20.0698 163.5482 20.0698 Q160.8294 20.0698 159.3372 22.6089 Q157.845 25.1479 157.845 28.0386 Z"
         id="path93" />
      <path
         style="stroke:none;"
         d="M175.0378 40.3198 L175.0378 38.6323 Q176.6784 38.6323 177.7331 38.3745 Q178.7878 38.1167 178.7878 37.1011 L178.7878 24.0073 Q178.7878 22.7104 178.3971 22.1401 Q178.0065 21.5698 177.2799 21.437 Q176.5534 21.3042 175.0378 21.3042 L175.0378 19.6167 L181.9909 19.1011 L181.9909 23.7886 Q182.9596 21.7261 184.8424 20.4136 Q186.7253 19.1011 188.9596 19.1011 Q192.2878 19.1011 193.9596 20.6948 Q195.6315 22.2886 195.6315 25.5698 L195.6315 37.1011 Q195.6315 38.1167 196.6862 38.3745 Q197.7409 38.6323 199.3815 38.6323 L199.3815 40.3198 L188.3971 40.3198 L188.3971 38.6323 Q190.0378 38.6323 191.0924 38.3745 Q192.1471 38.1167 192.1471 37.1011 L192.1471 25.7104 Q192.1471 23.3667 191.4674 21.8589 Q190.7878 20.3511 188.6784 20.3511 Q185.8815 20.3511 184.0924 22.5776 Q182.3034 24.8042 182.3034 27.6323 L182.3034 37.1011 Q182.3034 38.1167 183.3581 38.3745 Q184.4128 38.6323 186.0221 38.6323 L186.0221 40.3198 L175.0378 40.3198 Z"
         id="path95" />
      <path
         style="stroke:none;"
         d="M212.2201 40.8667 Q209.3139 40.8667 206.9467 39.3511 Q204.5795 37.8354 203.2201 35.312 Q201.8607 32.7886 201.8607 29.9604 Q201.8607 27.1167 203.2123 24.5151 Q204.5639 21.9136 206.9389 20.3589 Q209.3139 18.8042 212.2201 18.8042 Q215.0326 18.8042 217.3451 19.9058 Q219.6576 21.0073 219.6576 23.5073 Q219.6576 24.4448 218.9857 25.1401 Q218.3139 25.8354 217.3607 25.8354 Q216.392 25.8354 215.7279 25.1401 Q215.0639 24.4448 215.0639 23.5073 Q215.0639 22.6636 215.6029 22.0464 Q216.142 21.4292 216.9389 21.2573 Q215.267 20.2104 212.267 20.2104 Q209.9701 20.2104 208.5639 21.7339 Q207.1576 23.2573 206.5951 25.5073 Q206.0326 27.7573 206.0326 29.9604 Q206.0326 32.2729 206.7279 34.4448 Q207.4232 36.6167 208.9545 38.0308 Q210.4857 39.4448 212.8139 39.4448 Q215.0795 39.4448 216.6732 38.0542 Q218.267 36.6636 218.8607 34.4136 Q218.8607 34.1323 219.2357 34.1323 L219.8139 34.1323 Q219.9545 34.1323 220.0717 34.2573 Q220.1889 34.3823 220.1889 34.5542 L220.1889 34.6948 Q219.4701 37.5229 217.3139 39.1948 Q215.1576 40.8667 212.2201 40.8667 Z"
         id="path97" />
      <path
         style="stroke:none;"
         d="M233.5535 40.8667 Q230.6316 40.8667 228.1785 39.3276 Q225.7253 37.7886 224.3347 35.2183 Q222.9441 32.6479 222.9441 29.7886 Q222.9441 26.9761 224.2175 24.4448 Q225.491 21.9136 227.78 20.3589 Q230.0691 18.8042 232.8816 18.8042 Q235.0847 18.8042 236.7097 19.5386 Q238.3347 20.2729 239.3894 21.5854 Q240.4441 22.8979 240.9831 24.6792 Q241.5222 26.4604 241.5222 28.6011 Q241.5222 29.2261 241.0378 29.2261 L227.1316 29.2261 L227.1316 29.7417 Q227.1316 33.7261 228.741 36.5854 Q230.3503 39.4448 233.9753 39.4448 Q235.4597 39.4448 236.7097 38.7886 Q237.9597 38.1323 238.8894 36.9604 Q239.8191 35.7886 240.1472 34.4604 Q240.1941 34.2886 240.3191 34.1636 Q240.4441 34.0386 240.616 34.0386 L241.0378 34.0386 Q241.5222 34.0386 241.5222 34.6479 Q240.8503 37.3667 238.6003 39.1167 Q236.3503 40.8667 233.5535 40.8667 ZM227.1785 28.0386 L238.1316 28.0386 Q238.1316 26.2261 237.6238 24.3745 Q237.116 22.5229 235.9441 21.2964 Q234.7722 20.0698 232.8816 20.0698 Q230.1628 20.0698 228.6706 22.6089 Q227.1785 25.1479 227.1785 28.0386 Z"
         id="path99" />
      <path
         style="stroke:none;"
         d="M260.1836 49.6323 L260.1836 47.9604 Q261.8242 47.9604 262.8789 47.6792 Q263.9336 47.3979 263.9336 46.4136 L263.9336 23.2729 Q263.9336 21.9604 262.9961 21.6323 Q262.0586 21.3042 260.1836 21.3042 L260.1836 19.6167 L267.2774 19.1011 L267.2774 22.0854 Q268.5899 20.6323 270.3399 19.8667 Q272.0899 19.1011 274.0586 19.1011 Q276.8867 19.1011 279.1602 20.6401 Q281.4336 22.1792 282.7149 24.6714 Q283.9961 27.1636 283.9961 29.9604 Q283.9961 32.8667 282.5742 35.3745 Q281.1524 37.8823 278.7071 39.3745 Q276.2617 40.8667 273.3242 40.8667 Q269.8399 40.8667 267.418 38.0229 L267.418 46.4136 Q267.418 47.3979 268.4883 47.6792 Q269.5586 47.9604 271.168 47.9604 L271.168 49.6323 L260.1836 49.6323 ZM267.418 35.6479 Q268.2617 37.3667 269.7617 38.4761 Q271.2617 39.5854 273.043 39.5854 Q274.7149 39.5854 275.9883 38.6948 Q277.2617 37.8042 278.1289 36.3042 Q278.9961 34.8042 279.4102 33.1558 Q279.8242 31.5073 279.8242 29.9604 Q279.8242 28.0386 279.1289 25.7964 Q278.4336 23.5542 277.0196 22.0229 Q275.6055 20.4917 273.5899 20.4917 Q271.6367 20.4917 270.0117 21.4839 Q268.3867 22.4761 267.418 24.1948 L267.418 35.6479 Z"
         id="path101" />
      <path
         style="stroke:none;"
         d="M287.5222 35.6011 Q287.5222 32.7417 289.7722 30.9526 Q292.0222 29.1636 295.1785 28.4214 Q298.3347 27.6792 301.1629 27.6792 L301.1629 25.7104 Q301.1629 24.3354 300.5535 23.0308 Q299.9441 21.7261 298.7957 20.8979 Q297.6472 20.0698 296.2722 20.0698 Q293.0847 20.0698 291.4129 21.4917 Q292.3347 21.4917 292.9285 22.187 Q293.5222 22.8823 293.5222 23.7886 Q293.5222 24.7573 292.8426 25.437 Q292.1629 26.1167 291.2254 26.1167 Q290.2722 26.1167 289.5926 25.437 Q288.9129 24.7573 288.9129 23.7886 Q288.9129 21.2573 291.2097 20.0308 Q293.5066 18.8042 296.2722 18.8042 Q298.2097 18.8042 300.1785 19.6323 Q302.1472 20.4604 303.4051 22.0073 Q304.6629 23.5542 304.6629 25.6167 L304.6629 36.4292 Q304.6629 37.3667 305.0613 38.1479 Q305.4597 38.9292 306.3035 38.9292 Q307.1004 38.9292 307.4832 38.1323 Q307.866 37.3354 307.866 36.4292 L307.866 33.3511 L309.2722 33.3511 L309.2722 36.4292 Q309.2722 37.5073 308.7097 38.4761 Q308.1472 39.4448 307.2019 40.0229 Q306.2566 40.6011 305.1472 40.6011 Q303.741 40.6011 302.7254 39.5073 Q301.7097 38.4136 301.5847 36.9136 Q300.6941 38.7261 298.9597 39.7964 Q297.2254 40.8667 295.2566 40.8667 Q293.4285 40.8667 291.6629 40.3198 Q289.8972 39.7729 288.7097 38.6167 Q287.5222 37.4604 287.5222 35.6011 ZM291.4129 35.6011 Q291.4129 37.2886 292.6551 38.437 Q293.8972 39.5854 295.5847 39.5854 Q297.1316 39.5854 298.3972 38.812 Q299.6629 38.0386 300.4129 36.7026 Q301.1629 35.3667 301.1629 33.8979 L301.1629 28.8979 Q298.991 28.8979 296.7019 29.6167 Q294.4129 30.3354 292.9129 31.8589 Q291.4129 33.3823 291.4129 35.6011 Z"
         id="path103" />
      <path
         style="stroke:none;"
         d="M314.5067 34.5542 L314.5067 21.3042 L310.5223 21.3042 L310.5223 20.0698 Q313.663 20.0698 315.1395 17.1401 Q316.6161 14.2104 316.6161 10.7886 L317.9911 10.7886 L317.9911 19.6167 L324.7723 19.6167 L324.7723 21.3042 L317.9911 21.3042 L317.9911 34.4604 Q317.9911 36.4448 318.663 37.9448 Q319.3348 39.4448 321.0692 39.4448 Q322.7098 39.4448 323.4364 37.8667 Q324.163 36.2886 324.163 34.4604 L324.163 31.6167 L325.538 31.6167 L325.538 34.5542 Q325.538 36.0542 324.9911 37.5151 Q324.4442 38.9761 323.3661 39.9214 Q322.288 40.8667 320.7411 40.8667 Q317.8505 40.8667 316.1786 39.1401 Q314.5067 37.4136 314.5067 34.5542 Z"
         id="path105" />
      <path
         style="stroke:none;"
         d="M333.1734 34.5542 L333.1734 21.3042 L329.1891 21.3042 L329.1891 20.0698 Q332.3297 20.0698 333.8062 17.1401 Q335.2828 14.2104 335.2828 10.7886 L336.6578 10.7886 L336.6578 19.6167 L343.4391 19.6167 L343.4391 21.3042 L336.6578 21.3042 L336.6578 34.4604 Q336.6578 36.4448 337.3297 37.9448 Q338.0016 39.4448 339.7359 39.4448 Q341.3766 39.4448 342.1031 37.8667 Q342.8297 36.2886 342.8297 34.4604 L342.8297 31.6167 L344.2047 31.6167 L344.2047 34.5542 Q344.2047 36.0542 343.6578 37.5151 Q343.1109 38.9761 342.0328 39.9214 Q340.9547 40.8667 339.4078 40.8667 Q336.5172 40.8667 334.8453 39.1401 Q333.1734 37.4136 333.1734 34.5542 Z"
         id="path107" />
      <path
         style="stroke:none;"
         d="M358.887 40.8667 Q355.9651 40.8667 353.512 39.3276 Q351.0589 37.7886 349.6683 35.2183 Q348.2776 32.6479 348.2776 29.7886 Q348.2776 26.9761 349.5511 24.4448 Q350.8245 21.9136 353.1136 20.3589 Q355.4026 18.8042 358.2151 18.8042 Q360.4183 18.8042 362.0433 19.5386 Q363.6683 20.2729 364.723 21.5854 Q365.7776 22.8979 366.3167 24.6792 Q366.8558 26.4604 366.8558 28.6011 Q366.8558 29.2261 366.3714 29.2261 L352.4651 29.2261 L352.4651 29.7417 Q352.4651 33.7261 354.0745 36.5854 Q355.6839 39.4448 359.3089 39.4448 Q360.7933 39.4448 362.0433 38.7886 Q363.2933 38.1323 364.223 36.9604 Q365.1526 35.7886 365.4808 34.4604 Q365.5276 34.2886 365.6526 34.1636 Q365.7776 34.0386 365.9495 34.0386 L366.3714 34.0386 Q366.8558 34.0386 366.8558 34.6479 Q366.1839 37.3667 363.9339 39.1167 Q361.6839 40.8667 358.887 40.8667 ZM352.512 28.0386 L363.4651 28.0386 Q363.4651 26.2261 362.9573 24.3745 Q362.4495 22.5229 361.2776 21.2964 Q360.1058 20.0698 358.2151 20.0698 Q355.4964 20.0698 354.0042 22.6089 Q352.512 25.1479 352.512 28.0386 Z"
         id="path109" />
      <path
         style="stroke:none;"
         d="M369.5172 40.3198 L369.5172 38.6323 Q371.1578 38.6323 372.2125 38.3745 Q373.2672 38.1167 373.2672 37.1011 L373.2672 24.0073 Q373.2672 22.7104 372.8766 22.1401 Q372.486 21.5698 371.7594 21.437 Q371.0328 21.3042 369.5172 21.3042 L369.5172 19.6167 L376.3766 19.1011 L376.3766 23.7886 Q377.1578 21.7104 378.5875 20.4058 Q380.0172 19.1011 382.0485 19.1011 Q383.486 19.1011 384.611 19.9448 Q385.736 20.7886 385.736 22.1792 Q385.736 23.0386 385.111 23.687 Q384.486 24.3354 383.5797 24.3354 Q382.6891 24.3354 382.0563 23.7026 Q381.4235 23.0698 381.4235 22.1792 Q381.4235 20.8823 382.3297 20.3511 L382.0485 20.3511 Q380.111 20.3511 378.8766 21.7573 Q377.6422 23.1636 377.1266 25.2495 Q376.611 27.3354 376.611 29.2261 L376.611 37.1011 Q376.611 38.6323 381.2828 38.6323 L381.2828 40.3198 L369.5172 40.3198 Z"
         id="path111" />
      <path
         style="stroke:none;"
         d="M388.5048 40.3198 L388.5048 38.6323 Q390.1454 38.6323 391.2001 38.3745 Q392.2548 38.1167 392.2548 37.1011 L392.2548 24.0073 Q392.2548 22.7104 391.8641 22.1401 Q391.4735 21.5698 390.7469 21.437 Q390.0204 21.3042 388.5048 21.3042 L388.5048 19.6167 L395.4579 19.1011 L395.4579 23.7886 Q396.4266 21.7261 398.3094 20.4136 Q400.1923 19.1011 402.4266 19.1011 Q405.7548 19.1011 407.4266 20.6948 Q409.0985 22.2886 409.0985 25.5698 L409.0985 37.1011 Q409.0985 38.1167 410.1532 38.3745 Q411.2079 38.6323 412.8485 38.6323 L412.8485 40.3198 L401.8641 40.3198 L401.8641 38.6323 Q403.5048 38.6323 404.5594 38.3745 Q405.6141 38.1167 405.6141 37.1011 L405.6141 25.7104 Q405.6141 23.3667 404.9344 21.8589 Q404.2548 20.3511 402.1454 20.3511 Q399.3485 20.3511 397.5594 22.5776 Q395.7704 24.8042 395.7704 27.6323 L395.7704 37.1011 Q395.7704 38.1167 396.8251 38.3745 Q397.8798 38.6323 399.4891 38.6323 L399.4891 40.3198 L388.5048 40.3198 Z"
         id="path113" />
    </g>
    <g
       style="text-rendering:geometricPrecision; color-interpolation:linearRGB; color-rendering:optimizeQuality; stroke-linejoin:round; stroke-linecap:butt; image-rendering:optimizeQuality;"
       id="g123">
      <line
         y2="403.0276"
         style="fill:none;"
         x1="1156"
         x2="1039.5975"
         y1="241.4107"
         id="line117" />
      <path
         d="M1049.7745 401.7308 L1032 413.5764 L1039.5977 403.0276 L1049.7745 401.7308"
         style="fill:none; fill-rule:evenodd;"
         id="path119" />
      <path
         d="M1032 413.5764 L1037.6028 392.9643 L1039.5977 403.0276 L1032 413.5764"
         style="fill:none; fill-rule:evenodd;"
         id="path121" />
    </g>
    <g
       style="text-rendering:optimizeSpeed; shape-rendering:crispEdges; color-interpolation:sRGB; color-rendering:optimizeSpeed; image-rendering:optimizeSpeed;"
       id="g129">
      <path
         style="stroke:none;"
         d="M1049.7745 401.7308 L1032 413.5764 L1039.5977 403.0276 Z"
         id="path125" />
      <path
         style="stroke:none;"
         d="M1032 413.5764 L1037.6028 392.9643 L1039.5977 403.0276 Z"
         id="path127" />
    </g>
    <g
       style="text-rendering:geometricPrecision; color-interpolation:linearRGB; color-rendering:optimizeQuality; stroke-linejoin:round; stroke-linecap:butt; image-rendering:optimizeQuality;"
       id="g137">
      <line
         y2="328.6577"
         style="fill:none;"
         x1="836"
         x2="914.6487"
         y1="268.9033"
         id="line131" />
      <path
         d="M913.6122 318.451 L925 336.5222 L914.6487 328.6577 L913.6122 318.451"
         style="fill:none; fill-rule:evenodd;"
         id="path133" />
      <path
         d="M925 336.5222 L904.5377 330.3948 L914.6487 328.6577 L925 336.5222"
         style="fill:none; fill-rule:evenodd;"
         id="path135" />
    </g>
    <g
       style="text-rendering:optimizeSpeed; shape-rendering:crispEdges; color-interpolation:sRGB; color-rendering:optimizeSpeed; image-rendering:optimizeSpeed;"
       id="g143">
      <path
         style="stroke:none;"
         d="M913.6122 318.451 L925 336.5222 L914.6487 328.6577 Z"
         id="path139" />
      <path
         style="stroke:none;"
         d="M925 336.5222 L904.5377 330.3948 L914.6487 328.6577 Z"
         id="path141" />
    </g>
    <g
       transform="translate(607,212.8149)"
       style="font-size:48px; text-rendering:geometricPrecision; color-rendering:optimizeQuality; image-rendering:optimizeQuality; font-family:'mwa_cmr10'; color-interpolation:linearRGB;"
       id="g147">
      <path
         style="stroke:none;"
         d="M11.7188 33.8802 Q8.8906 33.8802 6.5469 32.3411 Q4.2031 30.8021 2.8984 28.2943 Q1.5938 25.7865 1.5938 22.974 Q1.5938 20.0677 3.0156 17.5677 Q4.4375 15.0677 6.875 13.5911 Q9.3125 12.1146 12.2344 12.1146 Q14 12.1146 15.5703 12.8568 Q17.1406 13.599 18.2812 14.9115 L18.2812 4.9271 Q18.2812 3.6302 17.8984 3.0599 Q17.5156 2.4896 16.7969 2.3568 Q16.0781 2.224 14.5625 2.224 L14.5625 0.5365 L21.6562 0.0208 L21.6562 28.974 Q21.6562 30.2396 22.0469 30.8099 Q22.4375 31.3802 23.1484 31.513 Q23.8594 31.6458 25.3906 31.6458 L25.3906 33.3333 L18.1406 33.8802 L18.1406 30.849 Q16.9062 32.2708 15.1953 33.0755 Q13.4844 33.8802 11.7188 33.8802 ZM6.8281 29.1615 Q7.6406 30.724 9.0156 31.6615 Q10.3906 32.599 12 32.599 Q14 32.599 15.6641 31.4505 Q17.3281 30.3021 18.1406 28.474 L18.1406 16.974 Q17.5781 15.9115 16.7266 15.0833 Q15.875 14.2552 14.8047 13.8099 Q13.7344 13.3646 12.5469 13.3646 Q10.0312 13.3646 8.5078 14.7786 Q6.9844 16.1927 6.375 18.3958 Q5.7656 20.599 5.7656 23.0208 Q5.7656 24.9427 5.9688 26.3724 Q6.1719 27.8021 6.8281 29.1615 Z"
         id="path145" />
    </g>
    <g
       transform="translate(607,212.8149)"
       style="font-size:48px; text-rendering:geometricPrecision; color-rendering:optimizeQuality; image-rendering:optimizeQuality; font-family:'mwa_cmr10'; color-interpolation:linearRGB;"
       id="g183">
      <path
         style="stroke:none;"
         d="M28.1511 33.3333 L28.1511 31.6458 Q29.7917 31.6458 30.8464 31.388 Q31.9011 31.1302 31.9011 30.1146 L31.9011 17.0208 Q31.9011 15.1615 31.1824 14.7396 Q30.4636 14.3177 28.3542 14.3177 L28.3542 12.6302 L35.2761 12.1146 L35.2761 30.1146 Q35.2761 31.1302 36.1902 31.388 Q37.1042 31.6458 38.6199 31.6458 L38.6199 33.3333 L28.1511 33.3333 ZM30.1824 3.8646 Q30.1824 2.8177 30.9792 2.0208 Q31.7761 1.224 32.8074 1.224 Q33.4949 1.224 34.1277 1.5755 Q34.7605 1.9271 35.1121 2.5599 Q35.4636 3.1927 35.4636 3.8646 Q35.4636 4.8958 34.6667 5.6927 Q33.8699 6.4896 32.8074 6.4896 Q31.7761 6.4896 30.9792 5.6927 Q30.1824 4.8958 30.1824 3.8646 Z"
         id="path149" />
      <path
         style="stroke:none;"
         d="M41.2501 33.3333 L41.2501 31.6458 Q42.8907 31.6458 43.9454 31.388 Q45.0001 31.1302 45.0001 30.1146 L45.0001 14.3177 L41.297 14.3177 L41.297 12.6302 L45.0001 12.6302 L45.0001 6.8958 Q45.0001 5.0833 46.0157 3.6693 Q47.0314 2.2552 48.6173 1.3411 Q50.2032 0.4271 52.0548 -0.0417 Q53.9064 -0.5104 55.6095 -0.5104 Q57.1095 -0.5104 58.5079 -0.0182 Q59.9064 0.474 60.7032 1.5521 Q62.9689 -0.5104 66.1095 -0.5104 Q67.7345 -0.5104 69.0314 0.4505 Q70.3282 1.4115 70.3282 3.0052 Q70.3282 3.9115 69.7111 4.5365 Q69.0939 5.1615 68.172 5.1615 Q67.2657 5.1615 66.6173 4.5365 Q65.9689 3.9115 65.9689 3.0052 Q65.9689 1.5052 67.2657 0.9896 Q66.4845 0.724 65.8751 0.724 Q64.4689 0.724 63.4611 1.7083 Q62.4532 2.6927 61.9532 4.138 Q61.4532 5.5833 61.4532 6.9896 L61.4532 12.6302 L67.0314 12.6302 L67.0314 14.3177 L61.6095 14.3177 L61.6095 30.1146 Q61.6095 31.099 63.0157 31.3724 Q64.422 31.6458 66.2501 31.6458 L66.2501 33.3333 L54.4845 33.3333 L54.4845 31.6458 Q56.1251 31.6458 57.1798 31.388 Q58.2345 31.1302 58.2345 30.1146 L58.2345 14.3177 L48.3439 14.3177 L48.3439 30.1146 Q48.3439 31.1302 49.4142 31.388 Q50.4845 31.6458 52.0939 31.6458 L52.0939 33.3333 L41.2501 33.3333 ZM48.2032 12.6302 L58.2345 12.6302 L58.2345 6.8958 Q58.2345 6.474 58.3282 5.6771 Q57.047 5.0677 57.047 3.6615 Q57.047 2.8802 57.4923 2.3099 Q57.9376 1.7396 58.6876 1.5521 Q57.3282 0.724 55.2189 0.724 Q53.4532 0.724 51.8282 1.5365 Q50.2032 2.349 49.2032 3.7865 Q48.2032 5.224 48.2032 6.9896 L48.2032 12.6302 Z"
         id="path151" />
      <path
         style="stroke:none;"
         d="M69.2502 33.3333 L69.2502 31.6458 Q70.8909 31.6458 71.9456 31.388 Q73.0002 31.1302 73.0002 30.1146 L73.0002 17.0208 Q73.0002 15.724 72.6096 15.1536 Q72.219 14.5833 71.4924 14.4505 Q70.7659 14.3177 69.2502 14.3177 L69.2502 12.6302 L76.1096 12.1146 L76.1096 16.8021 Q76.8909 14.724 78.3206 13.4193 Q79.7502 12.1146 81.7815 12.1146 Q83.219 12.1146 84.344 12.9583 Q85.469 13.8021 85.469 15.1927 Q85.469 16.0521 84.844 16.7005 Q84.219 17.349 83.3127 17.349 Q82.4221 17.349 81.7893 16.7161 Q81.1565 16.0833 81.1565 15.1927 Q81.1565 13.8958 82.0627 13.3646 L81.7815 13.3646 Q79.844 13.3646 78.6096 14.7708 Q77.3752 16.1771 76.8596 18.263 Q76.344 20.349 76.344 22.2396 L76.344 30.1146 Q76.344 31.6458 81.0159 31.6458 L81.0159 33.3333 L69.2502 33.3333 Z"
         id="path153" />
      <path
         style="stroke:none;"
         d="M88.7221 28.6146 Q88.7221 25.7552 90.9721 23.9661 Q93.2221 22.1771 96.3784 21.4349 Q99.5346 20.6927 102.3628 20.6927 L102.3628 18.724 Q102.3628 17.349 101.7534 16.0443 Q101.144 14.7396 99.9956 13.9115 Q98.8471 13.0833 97.4721 13.0833 Q94.2846 13.0833 92.6128 14.5052 Q93.5346 14.5052 94.1284 15.2005 Q94.7221 15.8958 94.7221 16.8021 Q94.7221 17.7708 94.0425 18.4505 Q93.3628 19.1302 92.4253 19.1302 Q91.4721 19.1302 90.7925 18.4505 Q90.1128 17.7708 90.1128 16.8021 Q90.1128 14.2708 92.4096 13.0443 Q94.7065 11.8177 97.4721 11.8177 Q99.4096 11.8177 101.3784 12.6458 Q103.3471 13.474 104.605 15.0208 Q105.8628 16.5677 105.8628 18.6302 L105.8628 29.4427 Q105.8628 30.3802 106.2612 31.1615 Q106.6596 31.9427 107.5034 31.9427 Q108.3003 31.9427 108.6831 31.1458 Q109.0659 30.349 109.0659 29.4427 L109.0659 26.3646 L110.4721 26.3646 L110.4721 29.4427 Q110.4721 30.5208 109.9096 31.4896 Q109.3471 32.4583 108.4018 33.0365 Q107.4565 33.6146 106.3471 33.6146 Q104.9409 33.6146 103.9253 32.5208 Q102.9096 31.4271 102.7846 29.9271 Q101.894 31.7396 100.1596 32.8099 Q98.4253 33.8802 96.4565 33.8802 Q94.6284 33.8802 92.8628 33.3333 Q91.0971 32.7865 89.9096 31.6302 Q88.7221 30.474 88.7221 28.6146 ZM92.6128 28.6146 Q92.6128 30.3021 93.855 31.4505 Q95.0971 32.599 96.7846 32.599 Q98.3315 32.599 99.5971 31.8255 Q100.8628 31.0521 101.6128 29.7161 Q102.3628 28.3802 102.3628 26.9115 L102.3628 21.9115 Q100.1909 21.9115 97.9018 22.6302 Q95.6128 23.349 94.1128 24.8724 Q92.6128 26.3958 92.6128 28.6146 Z"
         id="path155" />
      <path
         style="stroke:none;"
         d="M122.7535 33.8802 Q119.8472 33.8802 117.48 32.3646 Q115.1128 30.849 113.7535 28.3255 Q112.3941 25.8021 112.3941 22.974 Q112.3941 20.1302 113.7457 17.5286 Q115.0972 14.9271 117.4722 13.3724 Q119.8472 11.8177 122.7535 11.8177 Q125.566 11.8177 127.8785 12.9193 Q130.191 14.0208 130.191 16.5208 Q130.191 17.4583 129.5191 18.1536 Q128.8472 18.849 127.8941 18.849 Q126.9253 18.849 126.2613 18.1536 Q125.5972 17.4583 125.5972 16.5208 Q125.5972 15.6771 126.1363 15.0599 Q126.6753 14.4427 127.4722 14.2708 Q125.8003 13.224 122.8003 13.224 Q120.5035 13.224 119.0972 14.7474 Q117.691 16.2708 117.1285 18.5208 Q116.566 20.7708 116.566 22.974 Q116.566 25.2865 117.2613 27.4583 Q117.9566 29.6302 119.4878 31.0443 Q121.0191 32.4583 123.3472 32.4583 Q125.6128 32.4583 127.2066 31.0677 Q128.8004 29.6771 129.3941 27.4271 Q129.3941 27.1458 129.7691 27.1458 L130.3472 27.1458 Q130.4879 27.1458 130.605 27.2708 Q130.7222 27.3958 130.7222 27.5677 L130.7222 27.7083 Q130.0035 30.5365 127.8472 32.2083 Q125.691 33.8802 122.7535 33.8802 Z"
         id="path157" />
      <path
         style="stroke:none;"
         d="M137.0399 27.5677 L137.0399 14.3177 L133.0555 14.3177 L133.0555 13.0833 Q136.1962 13.0833 137.6727 10.1536 Q139.1493 7.224 139.1493 3.8021 L140.5243 3.8021 L140.5243 12.6302 L147.3055 12.6302 L147.3055 14.3177 L140.5243 14.3177 L140.5243 27.474 Q140.5243 29.4583 141.1962 30.9583 Q141.868 32.4583 143.6024 32.4583 Q145.243 32.4583 145.9696 30.8802 Q146.6962 29.3021 146.6962 27.474 L146.6962 24.6302 L148.0712 24.6302 L148.0712 27.5677 Q148.0712 29.0677 147.5243 30.5286 Q146.9774 31.9896 145.8993 32.9349 Q144.8212 33.8802 143.2743 33.8802 Q140.3837 33.8802 138.7118 32.1536 Q137.0399 30.4271 137.0399 27.5677 Z"
         id="path159" />
      <path
         style="stroke:none;"
         d="M152.2848 33.3333 L152.2848 31.6458 Q153.9254 31.6458 154.9801 31.388 Q156.0348 31.1302 156.0348 30.1146 L156.0348 17.0208 Q156.0348 15.1615 155.316 14.7396 Q154.5973 14.3177 152.4879 14.3177 L152.4879 12.6302 L159.4098 12.1146 L159.4098 30.1146 Q159.4098 31.1302 160.3238 31.388 Q161.2379 31.6458 162.7535 31.6458 L162.7535 33.3333 L152.2848 33.3333 ZM154.316 3.8646 Q154.316 2.8177 155.1129 2.0208 Q155.9098 1.224 156.941 1.224 Q157.6285 1.224 158.2613 1.5755 Q158.8941 1.9271 159.2457 2.5599 Q159.5973 3.1927 159.5973 3.8646 Q159.5973 4.8958 158.8004 5.6927 Q158.0035 6.4896 156.941 6.4896 Q155.9098 6.4896 155.1129 5.6927 Q154.316 4.8958 154.316 3.8646 Z"
         id="path161" />
      <path
         style="stroke:none;"
         d="M176.1338 33.8802 Q173.2588 33.8802 170.7978 32.4115 Q168.3369 30.9427 166.9072 28.4818 Q165.4775 26.0208 165.4775 23.1146 Q165.4775 20.9115 166.2588 18.8724 Q167.04 16.8333 168.5088 15.224 Q169.9775 13.6146 171.9228 12.7161 Q173.8681 11.8177 176.1338 11.8177 Q179.0869 11.8177 181.5166 13.3724 Q183.9463 14.9271 185.3525 17.5443 Q186.7588 20.1615 186.7588 23.1146 Q186.7588 25.9896 185.3291 28.4661 Q183.8994 30.9427 181.4463 32.4115 Q178.9931 33.8802 176.1338 33.8802 ZM176.1338 32.4583 Q179.9775 32.4583 181.2666 29.6693 Q182.5556 26.8802 182.5556 22.5677 Q182.5556 20.1615 182.2978 18.5755 Q182.04 16.9896 181.1806 15.7083 Q180.6338 14.9115 179.8056 14.3099 Q178.9775 13.7083 178.0478 13.3958 Q177.1181 13.0833 176.1338 13.0833 Q174.6338 13.0833 173.29 13.763 Q171.9463 14.4427 171.0556 15.7083 Q170.165 17.0677 169.915 18.6927 Q169.665 20.3177 169.665 22.5677 Q169.665 25.2708 170.1338 27.4115 Q170.6025 29.5521 172.0244 31.0052 Q173.4463 32.4583 176.1338 32.4583 Z"
         id="path163" />
      <path
         style="stroke:none;"
         d="M189.5714 33.3333 L189.5714 31.6458 Q191.212 31.6458 192.2667 31.388 Q193.3214 31.1302 193.3214 30.1146 L193.3214 17.0208 Q193.3214 15.724 192.9307 15.1536 Q192.5401 14.5833 191.8135 14.4505 Q191.087 14.3177 189.5714 14.3177 L189.5714 12.6302 L196.5245 12.1146 L196.5245 16.8021 Q197.4932 14.7396 199.376 13.4271 Q201.2589 12.1146 203.4932 12.1146 Q206.8214 12.1146 208.4932 13.7083 Q210.1651 15.3021 210.1651 18.5833 L210.1651 30.1146 Q210.1651 31.1302 211.2198 31.388 Q212.2745 31.6458 213.9151 31.6458 L213.9151 33.3333 L202.9307 33.3333 L202.9307 31.6458 Q204.5714 31.6458 205.626 31.388 Q206.6807 31.1302 206.6807 30.1146 L206.6807 18.724 Q206.6807 16.3802 206.001 14.8724 Q205.3214 13.3646 203.212 13.3646 Q200.4151 13.3646 198.626 15.5911 Q196.837 17.8177 196.837 20.6458 L196.837 30.1146 Q196.837 31.1302 197.8917 31.388 Q198.9464 31.6458 200.5557 31.6458 L200.5557 33.3333 L189.5714 33.3333 Z"
         id="path165" />
      <path
         style="stroke:none;"
         d="M11.9531 91.4802 Q9.0312 91.4802 6.5781 89.9411 Q4.125 88.4021 2.7344 85.8318 Q1.3438 83.2615 1.3438 80.4021 Q1.3438 77.5896 2.6172 75.0583 Q3.8906 72.5271 6.1797 70.9724 Q8.4688 69.4177 11.2812 69.4177 Q13.4844 69.4177 15.1094 70.1521 Q16.7344 70.8865 17.7891 72.199 Q18.8438 73.5115 19.3828 75.2927 Q19.9219 77.074 19.9219 79.2146 Q19.9219 79.8396 19.4375 79.8396 L5.5312 79.8396 L5.5312 80.3552 Q5.5312 84.3396 7.1406 87.199 Q8.75 90.0583 12.375 90.0583 Q13.8594 90.0583 15.1094 89.4021 Q16.3594 88.7458 17.2891 87.574 Q18.2188 86.4021 18.5469 85.074 Q18.5938 84.9021 18.7188 84.7771 Q18.8438 84.6521 19.0156 84.6521 L19.4375 84.6521 Q19.9219 84.6521 19.9219 85.2615 Q19.25 87.9802 17 89.7302 Q14.75 91.4802 11.9531 91.4802 ZM5.5781 78.6521 L16.5312 78.6521 Q16.5312 76.8396 16.0234 74.988 Q15.5156 73.1365 14.3438 71.9099 Q13.1719 70.6833 11.2812 70.6833 Q8.5625 70.6833 7.0703 73.2224 Q5.5781 75.7615 5.5781 78.6521 Z"
         id="path167" />
      <path
         style="stroke:none;"
         d="M22.7708 90.9333 L22.7708 89.2458 Q24.4115 89.2458 25.4661 88.988 Q26.5208 88.7302 26.5208 87.7146 L26.5208 74.6208 Q26.5208 73.324 26.1302 72.7536 Q25.7396 72.1833 25.013 72.0505 Q24.2865 71.9177 22.7708 71.9177 L22.7708 70.2302 L29.724 69.7146 L29.724 74.4021 Q30.6927 72.3396 32.5755 71.0271 Q34.4583 69.7146 36.6927 69.7146 Q40.0208 69.7146 41.6927 71.3083 Q43.3646 72.9021 43.3646 76.1833 L43.3646 87.7146 Q43.3646 88.7302 44.4193 88.988 Q45.474 89.2458 47.1146 89.2458 L47.1146 90.9333 L36.1302 90.9333 L36.1302 89.2458 Q37.7708 89.2458 38.8255 88.988 Q39.8802 88.7302 39.8802 87.7146 L39.8802 76.324 Q39.8802 73.9802 39.2005 72.4724 Q38.5208 70.9646 36.4115 70.9646 Q33.6146 70.9646 31.8255 73.1911 Q30.0365 75.4177 30.0365 78.2458 L30.0365 87.7146 Q30.0365 88.7302 31.0911 88.988 Q32.1458 89.2458 33.7552 89.2458 L33.7552 90.9333 L22.7708 90.9333 Z"
         id="path169" />
      <path
         style="stroke:none;"
         d="M58.3855 90.9333 L51.3855 73.3083 Q50.9323 72.4177 50.0105 72.1677 Q49.0886 71.9177 47.5886 71.9177 L47.5886 70.2302 L57.6667 70.2302 L57.6667 71.9177 Q54.9636 71.9177 54.9636 73.074 Q54.9636 73.2615 55.0105 73.3552 L60.4011 86.9021 L65.2605 74.6677 Q65.4011 74.2927 65.4011 73.8865 Q65.4011 72.9802 64.7058 72.449 Q64.0105 71.9177 63.073 71.9177 L63.073 70.2302 L71.0417 70.2302 L71.0417 71.9177 Q69.573 71.9177 68.4558 72.5974 Q67.3386 73.2771 66.7292 74.6208 L60.2605 90.9333 Q60.073 91.4802 59.4948 91.4802 L59.1355 91.4802 Q58.5573 91.4802 58.3855 90.9333 Z"
         id="path171" />
      <path
         style="stroke:none;"
         d="M82.6199 91.4802 Q79.698 91.4802 77.2449 89.9411 Q74.7918 88.4021 73.4012 85.8318 Q72.0105 83.2615 72.0105 80.4021 Q72.0105 77.5896 73.284 75.0583 Q74.5574 72.5271 76.8465 70.9724 Q79.1355 69.4177 81.948 69.4177 Q84.1512 69.4177 85.7762 70.1521 Q87.4012 70.8865 88.4558 72.199 Q89.5105 73.5115 90.0496 75.2927 Q90.5887 77.074 90.5887 79.2146 Q90.5887 79.8396 90.1043 79.8396 L76.198 79.8396 L76.198 80.3552 Q76.198 84.3396 77.8074 87.199 Q79.4168 90.0583 83.0418 90.0583 Q84.5262 90.0583 85.7762 89.4021 Q87.0262 88.7458 87.9558 87.574 Q88.8855 86.4021 89.2137 85.074 Q89.2605 84.9021 89.3855 84.7771 Q89.5105 84.6521 89.6824 84.6521 L90.1043 84.6521 Q90.5887 84.6521 90.5887 85.2615 Q89.9168 87.9802 87.6668 89.7302 Q85.4168 91.4802 82.6199 91.4802 ZM76.2449 78.6521 L87.198 78.6521 Q87.198 76.8396 86.6902 74.988 Q86.1824 73.1365 85.0105 71.9099 Q83.8387 70.6833 81.948 70.6833 Q79.2293 70.6833 77.7371 73.2224 Q76.2449 75.7615 76.2449 78.6521 Z"
         id="path173" />
      <path
         style="stroke:none;"
         d="M93.4845 90.9333 L93.4845 89.2458 Q95.1251 89.2458 96.1798 88.988 Q97.2345 88.7302 97.2345 87.7146 L97.2345 62.5271 Q97.2345 61.2302 96.8438 60.6599 Q96.4532 60.0896 95.7267 59.9568 Q95.0001 59.824 93.4845 59.824 L93.4845 58.1365 L100.6095 57.6208 L100.6095 87.7146 Q100.6095 88.7302 101.6642 88.988 Q102.7188 89.2458 104.3282 89.2458 L104.3282 90.9333 L93.4845 90.9333 Z"
         id="path175" />
      <path
         style="stroke:none;"
         d="M117.3335 91.4802 Q114.4585 91.4802 111.9975 90.0115 Q109.5366 88.5427 108.1069 86.0818 Q106.6772 83.6208 106.6772 80.7146 Q106.6772 78.5115 107.4585 76.4724 Q108.2397 74.4333 109.7085 72.824 Q111.1772 71.2146 113.1225 70.3161 Q115.0678 69.4177 117.3335 69.4177 Q120.2866 69.4177 122.7163 70.9724 Q125.146 72.5271 126.5522 75.1443 Q127.9585 77.7615 127.9585 80.7146 Q127.9585 83.5896 126.5288 86.0661 Q125.0991 88.5427 122.646 90.0115 Q120.1928 91.4802 117.3335 91.4802 ZM117.3335 90.0583 Q121.1772 90.0583 122.4663 87.2693 Q123.7553 84.4802 123.7553 80.1677 Q123.7553 77.7615 123.4975 76.1755 Q123.2397 74.5896 122.3803 73.3083 Q121.8335 72.5115 121.0053 71.9099 Q120.1772 71.3083 119.2475 70.9958 Q118.3178 70.6833 117.3335 70.6833 Q115.8335 70.6833 114.4897 71.363 Q113.146 72.0427 112.2553 73.3083 Q111.3647 74.6677 111.1147 76.2927 Q110.8647 77.9177 110.8647 80.1677 Q110.8647 82.8708 111.3335 85.0115 Q111.8022 87.1521 113.2241 88.6052 Q114.646 90.0583 117.3335 90.0583 Z"
         id="path177" />
      <path
         style="stroke:none;"
         d="M130.5836 100.2458 L130.5836 98.574 Q132.2242 98.574 133.2789 98.2927 Q134.3336 98.0115 134.3336 97.0271 L134.3336 73.8865 Q134.3336 72.574 133.3961 72.2458 Q132.4586 71.9177 130.5836 71.9177 L130.5836 70.2302 L137.6773 69.7146 L137.6773 72.699 Q138.9898 71.2458 140.7398 70.4802 Q142.4898 69.7146 144.4586 69.7146 Q147.2867 69.7146 149.5601 71.2536 Q151.8336 72.7927 153.1148 75.2849 Q154.3961 77.7771 154.3961 80.574 Q154.3961 83.4802 152.9742 85.988 Q151.5523 88.4958 149.107 89.988 Q146.6617 91.4802 143.7242 91.4802 Q140.2398 91.4802 137.8179 88.6365 L137.8179 97.0271 Q137.8179 98.0115 138.8882 98.2927 Q139.9586 98.574 141.5679 98.574 L141.5679 100.2458 L130.5836 100.2458 ZM137.8179 86.2615 Q138.6617 87.9802 140.1617 89.0896 Q141.6617 90.199 143.4429 90.199 Q145.1148 90.199 146.3882 89.3083 Q147.6617 88.4177 148.5289 86.9177 Q149.3961 85.4177 149.8101 83.7693 Q150.2242 82.1208 150.2242 80.574 Q150.2242 78.6521 149.5289 76.4099 Q148.8336 74.1677 147.4195 72.6365 Q146.0054 71.1052 143.9898 71.1052 Q142.0367 71.1052 140.4117 72.0974 Q138.7867 73.0896 137.8179 74.8083 L137.8179 86.2615 Z"
         id="path179" />
      <path
         style="stroke:none;"
         d="M169.2868 91.4802 Q166.3649 91.4802 163.9118 89.9411 Q161.4587 88.4021 160.0681 85.8318 Q158.6774 83.2615 158.6774 80.4021 Q158.6774 77.5896 159.9509 75.0583 Q161.2243 72.5271 163.5134 70.9724 Q165.8024 69.4177 168.6149 69.4177 Q170.8181 69.4177 172.4431 70.1521 Q174.0681 70.8865 175.1227 72.199 Q176.1774 73.5115 176.7165 75.2927 Q177.2556 77.074 177.2556 79.2146 Q177.2556 79.8396 176.7712 79.8396 L162.8649 79.8396 L162.8649 80.3552 Q162.8649 84.3396 164.4743 87.199 Q166.0837 90.0583 169.7087 90.0583 Q171.1931 90.0583 172.4431 89.4021 Q173.6931 88.7458 174.6227 87.574 Q175.5524 86.4021 175.8806 85.074 Q175.9274 84.9021 176.0524 84.7771 Q176.1774 84.6521 176.3493 84.6521 L176.7712 84.6521 Q177.2556 84.6521 177.2556 85.2615 Q176.5837 87.9802 174.3337 89.7302 Q172.0837 91.4802 169.2868 91.4802 ZM162.9118 78.6521 L173.8649 78.6521 Q173.8649 76.8396 173.3571 74.988 Q172.8493 73.1365 171.6774 71.9099 Q170.5056 70.6833 168.6149 70.6833 Q165.8962 70.6833 164.404 73.2224 Q162.9118 75.7615 162.9118 78.6521 Z"
         id="path181" />
    </g>
  </g>
</svg>
